<svg xmlns="http://www.w3.org/2000/svg" viewBox="0 0 900 450" width="900" height="450">
  <defs>
  
  <rect width="900" height="450" fill="#000c1e"/>
  
  <!-- graticule lines -->
  <g stroke="rgba(0,188,212,0.1)" stroke-width="0.4" fill="none" stroke-dasharray="3,5">
    <!-- latitude lines every 30° -->
    <line x1="0" y1="75"  x2="900" y2="75"/>
    <line x1="0" y1="150" x2="900" y2="150"/>
    <line x1="0" y1="225" x2="900" y2="225"/>
    <line x1="0" y1="300" x2="900" y2="300"/>
    <line x1="0" y1="375" x2="900" y2="375"/>
    <!-- longitude lines every 30° -->
    <line x1="75"  y1="0" x2="75"  y2="450"/>
    <line x1="150" y1="0" x2="150" y2="450"/>
    <line x1="225" y1="0" x2="225" y2="450"/>
    <line x1="300" y1="0" x2="300" y2="450"/>
    <line x1="375" y1="0" x2="375" y2="450"/>
    <line x1="450" y1="0" x2="450" y2="450"/>
    <line x1="525" y1="0" x2="525" y2="450"/>
    <line x1="600" y1="0" x2="600" y2="450"/>
    <line x1="675" y1="0" x2="675" y2="450"/>
    <line x1="750" y1="0" x2="750" y2="450"/>
    <line x1="825" y1="0" x2="825" y2="450"/>
    <!-- equator highlight -->
    <line x1="0" y1="225" x2="900" y2="225" stroke="rgba(0,188,212,0.2)" stroke-dasharray="6,4"/>
  </g>
  <path d="M301.1,425.1L300.3,426.4L299.6,427.5L294.4,427.2L288.8,427.3L285.6,426.5L285.6,426.4L284.3,425.6L289.9,425.7L295.3,426.0L297.2,425.0L298.5,424.1L301.1,425.1Z M52.0,423.7L47.2,424.1L43.9,423.2L42.4,422.3L42.3,422.2L40.7,421.5L42.2,420.6L46.9,421.0L49.4,421.7L51.3,422.6L52.0,423.7Z M337.1,420.1L340.2,421.2L341.3,422.7L341.6,423.8L341.7,425.1L337.8,425.9L333.7,426.5L329.0,427.1L323.8,427.6L317.9,427.4L314.6,426.6L315.0,425.6L320.4,424.9L322.5,424.0L324.1,423.0L325.2,422.0L326.7,421.1L328.4,420.1L329.6,420.1L333.3,419.6L337.1,420.1Z M147.0,408.8L150.2,409.1L153.2,408.7L151.8,409.6L149.4,410.2L145.9,410.0L143.4,409.1L144.0,408.3L147.0,408.8Z M136.1,408.7L139.9,409.7L138.4,409.6L135.2,409.3L131.8,408.7L133.6,408.1L136.1,408.7Z M202.5,404.8L205.3,405.2L208.0,404.9L209.5,406.3L207.5,406.1L204.5,406.2L201.4,406.1L198.0,406.3L195.5,405.8L194.2,404.7L195.7,404.3L198.9,404.6L202.5,404.8Z M278.9,402.4L279.2,403.5L278.7,404.5L278.0,405.4L275.1,405.8L272.3,406.3L269.0,406.2L270.3,405.2L267.3,405.6L264.5,405.9L262.6,405.2L262.5,404.2L265.2,403.2L266.9,402.9L269.8,403.0L270.6,401.7L270.7,400.8L270.6,398.8L272.1,397.6L274.4,397.2L275.7,398.1L276.3,399.1L277.4,400.2L278.2,401.3L278.9,402.4Z M0.0,436.8L0.1,436.8L2.3,435.3L6.9,436.1L7.1,436.0L7.8,435.8L8.7,435.6L9.4,435.4L9.8,435.2L10.2,435.3L10.4,435.3L14.0,436.3L17.2,435.3L17.8,435.2L25.1,434.7L27.5,435.3L28.7,435.6L32.4,436.4L39.5,437.1L45.2,437.8L54.8,438.4L62.0,437.7L72.6,438.2L78.7,439.0L85.3,438.3L92.2,437.6L92.8,436.4L82.9,436.3L74.8,435.7L72.7,434.8L66.0,434.2L66.5,433.1L67.4,432.1L68.3,431.1L67.8,430.1L63.7,429.4L61.8,428.5L57.9,427.8L64.0,427.9L69.8,427.5L73.4,428.3L77.8,427.6L81.9,426.7L84.0,425.8L83.1,424.8L79.8,424.1L76.2,423.4L71.0,423.2L66.5,422.9L61.7,422.7L60.1,421.7L56.8,420.9L54.9,420.1L54.1,417.2L55.3,417.5L57.6,418.3L61.7,418.0L65.6,417.7L67.7,418.7L71.7,418.5L75.0,418.0L78.1,417.3L81.0,416.4L84.7,416.2L84.6,415.3L83.8,414.3L84.5,413.5L87.7,413.0L89.2,413.8L93.0,413.4L95.9,412.7L99.5,412.7L102.9,412.4L106.2,411.8L108.9,411.3L112.0,410.8L113.9,410.9L115.6,411.1L119.4,410.8L122.7,411.2L126.1,411.2L129.4,410.8L132.8,411.0L136.5,411.3L140.0,411.2L143.6,411.2L147.3,411.3L150.7,411.2L153.3,410.5L156.3,410.1L159.5,410.6L162.4,410.2L165.1,409.3L166.8,410.1L167.6,411.0L169.3,411.8L171.8,411.0L174.8,412.0L178.2,412.3L181.1,413.0L184.6,412.8L187.8,412.4L191.6,412.5L195.0,412.8L198.4,413.3L199.7,412.2L198.1,411.3L196.9,410.5L193.6,410.3L192.2,409.3L191.7,408.4L190.8,406.5L192.7,406.9L196.0,407.0L199.2,406.9L202.2,407.3L204.7,408.0L205.8,408.9L209.2,409.0L212.4,408.7L215.8,408.2L218.9,407.9L221.4,408.5L224.8,408.3L226.9,406.4L228.9,407.5L231.8,408.0L235.0,407.7L237.0,408.7L240.3,408.8L243.3,409.1L246.3,409.6L248.3,408.7L249.3,407.8L251.8,408.8L255.2,408.6L257.7,409.1L259.4,409.9L262.8,409.7L265.4,409.1L267.9,408.5L270.9,408.2L274.5,407.9L277.7,407.5L280.1,407.0L281.6,406.2L282.2,405.1L281.9,404.1L281.1,403.1L280.2,402.1L279.4,401.2L278.8,400.3L278.6,399.3L278.9,398.3L280.1,397.4L281.0,396.4L281.4,395.4L280.9,394.3L280.6,393.3L281.9,392.2L283.2,391.5L284.9,390.5L286.6,389.7L288.6,389.0L289.6,387.9L290.9,387.2L292.5,386.6L294.9,386.5L296.5,385.7L298.2,385.2L300.3,384.9L302.1,384.3L303.5,383.5L305.5,383.2L306.9,383.8L306.0,384.6L303.5,385.4L302.4,385.9L300.5,385.5L298.5,385.8L296.8,386.4L294.9,387.0L293.7,387.7L293.4,388.7L293.5,389.6L294.7,390.5L293.0,391.1L290.6,391.3L289.3,392.1L287.8,392.9L286.2,394.0L285.8,394.9L286.7,395.9L288.0,396.7L290.1,397.3L292.0,398.1L293.0,399.0L293.6,400.0L294.3,401.0L295.5,401.8L296.2,402.7L296.6,405.0L297.3,406.0L297.5,406.9L298.3,407.9L297.9,409.2L296.6,410.3L295.1,411.1L291.8,411.4L290.6,412.3L289.1,413.2L285.3,414.1L282.0,414.5L278.9,415.0L275.5,415.6L273.5,416.6L269.5,416.7L265.1,416.6L261.1,416.8L256.9,416.8L257.7,417.8L261.5,418.2L264.3,418.9L265.9,419.8L263.1,420.6L258.8,420.3L255.2,420.9L255.0,422.0L254.9,423.0L257.9,423.8L258.4,424.7L261.6,425.6L266.9,426.0L271.4,426.7L275.0,427.5L279.5,428.3L285.7,428.7L291.9,429.4L296.1,430.1L300.8,430.9L303.2,432.1L304.4,433.0L307.5,432.2L311.6,431.4L315.9,430.6L321.1,430.0L325.6,429.3L331.8,429.3L337.9,429.6L343.0,430.2L344.6,429.1L348.1,428.4L354.4,428.3L359.3,427.8L364.0,427.3L369.2,426.9L374.8,426.5L378.6,425.8L376.9,425.0L375.8,424.1L375.8,423.2L370.9,423.2L365.8,423.6L360.9,423.6L360.2,422.7L360.6,420.8L361.7,420.3L365.3,419.7L369.5,419.1L372.5,418.4L375.5,417.7L377.8,416.7L381.2,416.2L384.6,415.9L386.3,415.7L390.2,415.6L393.9,415.3L396.9,414.8L400.0,414.2L402.7,413.6L406.2,412.8L408.4,412.0L410.7,411.2L411.5,410.3L408.8,409.7L409.7,408.6L411.4,407.9L414.0,407.4L416.7,406.8L419.3,406.0L421.2,405.0L422.4,403.9L424.3,403.2L427.2,403.3L428.5,404.1L431.5,404.2L431.6,403.3L432.8,402.3L435.5,402.6L436.2,403.5L439.1,403.7L442.4,403.2L445.5,402.9L448.3,403.1L449.4,404.1L452.2,403.3L454.7,402.8L457.6,402.5L460.3,402.1L462.9,401.5L465.7,401.2L467.8,400.6L469.4,399.7L471.2,400.4L473.8,400.0L475.6,401.2L477.0,402.1L479.9,401.6L481.0,400.6L483.6,399.9L486.8,400.1L487.8,401.0L489.9,400.1L492.6,399.8L495.5,399.7L498.1,399.7L500.9,400.0L503.6,400.2L504.8,401.0L506.4,401.7L509.2,401.3L512.1,401.2L514.9,401.2L517.7,401.2L520.2,400.8L522.9,400.5L525.1,399.8L527.4,399.4L530.0,399.1L531.9,398.5L533.3,397.1L534.7,396.3L537.3,396.6L538.3,397.5L540.4,398.1L543.0,397.9L544.8,398.8L546.6,399.4L549.2,398.9L550.0,397.8L552.3,397.3L554.9,396.5L557.3,396.2L560.3,395.7L562.2,395.1L564.3,394.5L566.3,394.0L568.6,394.3L570.9,393.4L572.5,392.7L574.8,392.8L576.9,392.2L577.4,391.3L579.5,390.6L581.5,390.1L584.0,389.7L586.3,389.5L588.5,389.7L590.9,389.9L592.9,390.6L593.1,391.7L595.3,392.5L596.9,393.2L599.8,393.5L601.5,394.2L603.6,394.9L606.0,395.0L608.0,394.5L610.1,393.5L612.5,394.1L614.9,394.3L617.3,394.6L619.7,394.8L622.2,394.8L624.3,397.4L624.2,398.1L623.9,399.2L621.5,399.8L619.5,400.8L619.9,401.7L622.7,401.7L622.3,402.7L621.1,403.6L619.9,404.6L621.8,405.4L624.7,405.7L627.6,405.2L628.9,404.2L629.8,403.3L631.1,402.5L632.7,401.8L633.3,400.9L634.7,399.7L636.2,399.4L639.1,399.3L641.6,399.0L644.1,398.7L645.3,397.7L646.1,396.7L647.8,395.8L650.2,395.2L652.3,394.7L653.7,393.9L655.1,393.4L656.9,393.0L659.4,393.3L661.7,393.0L664.1,392.7L666.9,392.9L668.7,392.2L670.0,390.5L670.9,391.2L672.1,392.4L674.2,392.9L676.6,393.1L679.0,392.8L681.5,393.0L683.9,393.0L685.4,392.8L687.5,392.9L689.5,393.5L691.7,393.1L694.4,393.1L696.7,392.8L699.3,393.1L701.0,392.3L702.2,391.5L704.0,390.8L707.1,388.9L708.7,389.3L710.6,389.9L712.3,390.8L715.5,392.3L717.9,392.4L720.2,392.4L722.9,392.1L725.6,391.7L727.6,391.1L729.4,390.3L732.1,390.2L734.0,389.7L736.0,390.2L737.2,391.0L739.0,391.7L741.8,391.7L743.5,392.3L746.4,392.9L749.6,393.2L752.2,393.0L754.1,392.2L755.8,391.4L758.1,391.2L760.3,391.6L762.9,391.8L765.3,391.4L767.5,391.4L769.7,391.7L772.0,391.9L774.3,391.5L777.0,391.1L779.5,391.0L782.3,391.0L784.6,390.7L786.9,390.5L787.6,389.3L787.7,388.3L789.2,389.0L789.7,390.1L790.5,391.1L791.5,391.9L793.7,392.4L796.5,392.2L799.8,392.2L802.0,392.0L805.3,392.0L807.7,392.0L810.9,392.1L813.7,392.3L815.5,393.1L815.0,394.0L816.6,394.7L819.3,395.3L822.1,396.0L825.3,396.4L828.7,396.8L831.3,397.2L834.1,397.2L835.7,396.4L837.9,397.1L839.8,397.9L842.0,398.5L845.1,398.7L848.0,399.0L849.2,400.0L852.0,400.6L853.9,401.4L856.7,401.8L859.6,401.8L862.3,401.9L865.3,401.9L868.3,402.1L871.1,402.4L873.7,403.0L876.3,403.5L878.0,404.2L877.7,405.2L876.4,406.1L875.3,407.2L874.4,408.1L873.2,409.1L869.9,409.5L868.5,410.4L865.2,411.0L864.1,411.9L862.4,412.9L860.6,413.6L859.6,414.7L858.9,415.6L858.7,416.7L858.7,417.7L860.1,418.6L860.7,419.6L861.9,420.5L866.5,420.8L867.5,421.9L863.0,422.3L859.2,422.8L854.4,422.9L852.3,424.3L851.9,425.5L850.8,426.4L849.5,427.4L852.8,428.2L854.1,429.2L856.2,430.2L859.3,431.0L862.7,431.8L866.5,432.6L872.2,433.3L873.5,434.6L880.7,435.1L881.2,435.3L883.1,436.0L890.0,435.4L895.7,436.2L0.0,436.8Z M280.6,359.6L283.9,361.1L287.4,361.7L286.2,363.0L283.9,363.1L282.6,362.2L281.8,363.3L279.6,364.0L276.9,363.7L275.1,363.0L272.5,362.6L269.3,361.2L266.8,359.9L263.3,357.1L265.4,357.6L268.9,359.3L272.2,360.2L273.5,359.0L274.3,357.3L276.6,356.3L278.4,356.6L279.4,357.8L280.6,359.6Z M303.6,352.7L305.6,353.9L304.9,354.8L301.5,355.5L300.4,354.6L298.3,355.7L297.0,354.6L300.0,353.1L302.1,353.8L303.6,352.7Z M625.7,349.3L621.9,349.4L621.8,348.1L622.2,347.1L622.3,346.6L623.9,347.3L626.3,347.7L626.4,348.1L625.7,349.3Z M813.5,327.0L815.9,327.8L817.3,327.5L819.2,327.0L820.7,327.2L820.9,330.2L820.0,331.0L819.8,333.0L818.9,332.3L817.2,334.1L816.7,334.0L815.1,333.9L813.6,331.7L813.2,330.1L811.8,327.9L811.9,326.8L813.5,327.0Z M882.5,327.3L883.1,328.3L884.9,327.3L885.6,328.4L885.6,329.4L884.7,330.6L883.1,332.4L881.8,333.4L882.7,334.6L880.8,334.7L878.6,335.6L878.0,337.2L876.5,339.8L874.6,340.9L873.3,341.6L871.0,341.5L869.4,340.7L866.7,340.5L866.3,339.6L867.6,337.8L870.8,335.3L872.4,334.8L874.2,333.9L876.3,332.6L877.8,331.3L878.9,329.4L879.9,328.8L880.2,327.4L882.0,326.2L882.5,327.3Z M886.5,315.4L888.3,318.0L888.4,316.3L889.5,317.0L889.9,318.9L891.9,319.7L893.6,319.9L895.0,318.9L896.3,319.2L895.7,321.5L894.9,322.9L893.0,322.9L892.3,323.6L892.6,324.7L892.2,325.2L891.3,326.5L890.0,328.2L888.1,329.2L887.7,328.6L886.6,328.2L888.1,326.2L887.2,324.8L884.6,323.8L884.6,322.9L886.4,322.0L886.9,320.1L886.7,318.5L885.7,316.8L885.8,316.3L884.6,315.3L882.6,313.1L881.6,311.3L882.5,311.1L883.9,312.5L885.8,313.2L886.5,315.4Z M867.8,280.4L866.9,281.0L865.5,280.3L863.7,279.2L862.1,277.9L860.4,276.1L860.1,275.3L861.1,275.3L862.6,276.2L863.6,277.0L864.4,277.7L866.5,279.2L867.8,280.4Z M895.9,268.3L896.8,269.1L896.4,270.4L894.8,270.7L893.5,270.4L893.2,269.3L894.2,268.5L895.3,268.8L895.9,268.3Z M0.0,266.4L898.4,267.0L896.8,267.5L896.5,266.6L897.7,266.1L898.5,265.9L0.0,265.2L0.5,265.1L0.2,266.3L0.0,266.4Z M869.6,266.2L868.8,266.5L868.0,265.4L868.0,264.7L869.6,266.2Z M867.8,262.3L868.2,264.4L867.5,264.0L867.0,264.2L866.6,263.5L866.6,261.6L867.8,262.3Z M575.1,258.9L575.5,261.9L576.2,263.1L575.9,264.3L575.5,265.0L574.7,263.5L574.2,264.3L574.7,266.1L574.4,267.2L573.7,267.8L573.6,269.9L572.6,272.8L571.4,276.2L569.8,281.0L568.9,284.5L567.7,287.4L565.7,287.9L563.5,289.0L562.1,288.4L560.1,287.5L559.4,286.2L559.2,283.9L558.4,281.9L558.1,280.1L558.6,278.3L559.7,277.9L559.7,277.1L560.9,275.2L561.2,273.6L560.6,272.4L560.1,270.8L559.9,268.5L560.8,267.1L561.1,265.5L562.4,265.4L563.8,264.9L564.7,264.5L565.8,264.5L567.2,263.0L569.3,261.5L570.0,260.2L569.7,259.2L570.7,259.5L572.1,257.7L572.2,256.2L573.0,255.1L573.9,256.2L574.5,257.2L575.1,258.9Z M808.9,259.4L809.8,261.4L811.4,260.4L812.2,261.5L813.4,262.5L813.2,263.6L813.7,265.7L814.1,267.0L814.7,267.3L815.4,269.4L815.2,270.7L816.0,272.4L818.7,273.7L820.4,274.9L822.1,276.0L821.8,276.6L823.2,278.2L824.2,280.9L825.2,280.3L826.2,281.4L826.8,281.0L827.3,283.7L829.0,285.2L830.2,286.1L832.1,288.2L832.8,290.2L832.9,291.6L832.7,293.1L833.9,295.3L833.8,297.5L833.3,298.6L832.7,300.9L832.7,302.3L832.2,304.1L831.1,306.4L829.3,307.6L828.4,309.5L827.5,310.8L826.8,312.9L825.8,314.2L825.2,316.0L824.9,317.8L825.0,318.6L823.6,319.4L820.8,319.5L818.5,320.5L817.3,321.5L815.8,322.6L813.7,321.5L812.2,321.0L812.6,319.7L811.2,320.2L809.0,322.0L806.9,321.3L805.4,320.9L804.0,320.8L801.6,320.0L800.0,318.5L799.5,316.6L798.9,315.3L797.7,314.3L795.3,314.0L796.1,312.8L795.5,311.0L794.3,312.7L792.1,313.2L793.4,311.8L793.8,310.3L794.7,309.1L794.5,307.2L792.5,309.4L790.9,310.2L790.0,312.2L788.0,311.2L788.1,309.9L786.5,308.1L785.2,307.1L785.7,306.5L782.5,305.0L780.7,305.0L778.3,303.7L773.8,304.0L770.6,304.9L767.8,305.7L765.4,305.5L762.7,306.8L760.6,307.4L760.1,308.7L759.1,309.7L757.0,309.8L755.5,310.0L753.2,309.6L751.5,309.8L749.7,309.9L748.2,311.3L747.5,311.2L746.3,311.9L745.1,312.7L743.2,312.6L741.6,312.6L738.9,311.0L737.6,310.5L737.6,309.1L738.9,308.7L739.3,308.1L739.2,307.3L739.5,305.5L739.2,304.0L737.9,301.5L737.5,300.1L737.6,298.7L736.6,297.0L736.5,296.3L735.4,295.3L735.1,293.3L733.7,291.4L733.3,290.3L734.4,291.4L733.6,289.1L734.8,289.8L735.6,290.7L735.5,289.5L734.3,287.5L734.1,286.7L733.5,286.0L733.8,284.5L734.3,283.9L734.6,282.7L734.3,281.2L735.4,279.4L735.6,281.3L736.6,279.6L738.6,278.7L739.9,277.7L741.8,276.8L742.9,276.6L743.6,276.9L745.6,275.9L747.1,275.7L747.5,275.1L748.1,274.9L749.5,274.9L752.1,274.2L753.5,273.1L754.1,271.8L755.6,270.5L755.7,269.5L755.8,268.1L757.5,266.0L758.6,268.2L759.7,267.7L758.8,266.5L759.5,265.3L760.6,265.8L760.9,263.9L762.3,262.7L762.9,261.7L764.2,261.3L764.2,260.6L765.3,260.9L765.4,260.2L766.5,259.9L767.7,259.5L769.5,260.7L770.9,262.2L772.5,262.2L774.1,262.4L773.5,261.1L774.7,259.0L775.9,258.4L775.5,257.8L776.5,256.3L778.1,255.5L779.3,255.8L781.4,255.3L781.4,254.0L779.6,253.2L780.9,252.8L782.5,253.4L783.9,254.5L786.0,255.1L786.7,254.9L788.2,255.6L789.7,254.9L790.6,255.1L791.2,254.6L792.4,255.9L791.7,257.2L790.8,258.2L789.9,258.3L790.2,259.3L789.5,260.6L788.6,261.8L788.7,262.5L790.7,263.9L792.7,264.7L794.0,265.5L795.8,267.0L796.5,267.0L797.8,267.7L798.2,268.4L800.5,269.3L802.2,268.4L802.7,267.1L803.2,266.0L803.5,264.6L804.3,262.6L803.9,261.4L804.1,260.7L803.8,259.2L804.1,257.4L804.6,256.9L804.2,256.0L804.8,254.7L805.3,253.3L805.4,252.6L806.3,251.7L807.0,252.9L807.2,254.5L807.8,254.8L807.9,255.8L808.8,257.1L809.0,258.5L808.9,259.4Z M855.3,251.2L856.0,252.1L854.3,252.0L853.3,250.5L854.8,251.1L855.3,251.2Z M751.8,250.6L750.7,250.6L747.4,248.9L749.8,248.4L751.1,249.2L751.9,249.9L751.8,250.6Z M852.1,249.7L851.2,249.7L849.6,249.5L849.1,249.1L849.3,248.1L850.9,248.5L851.7,249.0L852.1,249.7Z M854.2,249.0L853.8,249.5L852.0,247.3L851.5,245.8L852.3,245.8L853.2,247.8L854.2,249.0Z M761.1,250.3L759.0,250.9L758.7,250.6L758.9,249.7L759.9,248.2L762.4,247.2L762.7,246.6L764.9,246.1L766.6,246.0L767.4,245.7L768.3,246.0L767.4,246.7L764.8,247.8L762.7,248.5L761.1,250.3Z M744.7,245.2L745.6,245.9L747.2,245.7L747.8,246.8L744.9,247.3L743.2,247.6L741.9,247.6L742.7,246.1L744.1,246.1L744.7,245.2Z M757.3,245.2L756.9,246.6L753.1,247.3L749.8,247.0L749.8,246.1L751.8,245.6L753.4,246.3L755.0,246.2L757.3,245.2Z M849.7,245.8L849.8,246.3L847.8,245.3L846.5,244.4L845.5,243.6L845.9,243.3L847.1,243.9L849.1,245.1L849.7,245.8Z M843.8,243.4L843.3,243.5L842.3,242.9L841.2,241.9L841.4,241.5L842.8,242.6L843.8,243.4Z M721.6,241.9L726.4,242.2L726.9,241.2L731.5,242.4L732.4,244.0L736.2,244.4L739.3,245.9L736.4,246.9L733.7,245.9L731.4,245.9L728.8,245.8L726.5,245.3L723.6,244.4L721.7,244.1L720.7,244.4L716.1,243.4L715.7,242.3L713.4,242.1L715.1,239.7L718.2,239.9L720.2,240.9L721.2,241.1L721.6,241.9Z M786.8,240.5L785.5,242.2L785.3,240.4L785.7,239.5L786.2,238.6L786.8,239.3L786.8,240.5Z M839.7,242.1L839.0,242.3L837.9,241.3L836.8,239.8L836.3,237.8L836.6,237.6L836.9,238.3L837.7,238.9L838.9,240.5L840.1,241.3L839.7,242.1Z M830.0,238.7L828.6,238.9L828.3,239.6L826.9,240.2L825.6,240.8L824.3,240.8L822.2,240.1L820.8,239.4L821.0,238.6L823.2,239.0L824.6,238.8L825.0,237.6L825.4,237.5L825.6,238.8L827.0,238.6L827.7,237.8L829.1,236.9L828.8,235.4L830.3,235.4L830.8,235.8L830.8,237.2L830.0,238.7Z M768.1,233.6L767.2,234.5L765.5,234.0L765.0,232.9L767.5,232.8L768.1,233.6Z M776.2,232.7L777.1,234.6L775.0,233.6L772.9,233.4L771.5,233.6L769.8,233.5L770.3,232.1L773.4,232.0L776.2,232.7Z M832.9,236.2L832.1,236.9L831.6,235.4L831.0,234.5L829.9,233.7L828.5,232.6L826.7,231.9L827.4,231.2L828.7,232.0L829.5,232.5L830.6,233.1L831.6,234.2L832.6,235.0L832.9,236.2Z M785.4,227.9L786.1,231.9L788.6,233.4L790.7,230.8L793.6,229.3L795.8,229.3L798.0,230.1L799.8,231.0L802.5,231.5L806.8,233.2L811.5,234.7L813.2,235.9L814.6,237.2L815.0,238.7L819.1,240.2L819.7,241.5L817.4,241.8L818.0,243.5L820.2,245.1L821.8,247.8L823.3,247.7L823.2,248.8L825.1,249.2L824.3,249.7L827.0,250.7L826.7,251.5L825.1,251.6L824.5,251.0L822.3,250.7L819.8,250.3L817.8,248.7L816.4,247.4L815.1,245.2L811.9,244.1L809.7,244.8L808.2,245.6L808.5,247.5L806.6,248.3L805.2,247.9L802.6,247.8L800.4,245.7L797.8,245.2L797.2,246.0L794.0,246.0L795.1,244.0L796.7,243.3L796.0,240.6L794.8,238.5L790.0,236.4L787.9,236.2L784.2,233.8L783.4,235.1L782.5,235.3L781.9,234.4L781.9,233.3L780.0,232.1L782.7,231.2L784.4,231.2L784.2,230.5L780.6,230.5L779.6,229.0L777.4,228.6L776.3,227.3L779.7,226.7L780.9,225.9L785.0,226.9L785.4,227.9Z M763.1,221.4L761.1,223.9L759.2,224.4L756.8,223.9L752.6,224.0L750.5,224.4L750.1,226.3L752.3,228.5L753.7,227.4L758.3,226.5L758.1,227.7L757.1,227.3L756.0,228.8L753.8,229.8L756.1,233.0L755.7,233.8L757.9,236.7L757.9,238.4L756.6,239.1L755.6,238.2L756.8,236.2L754.3,237.1L753.7,236.4L754.0,235.5L752.2,234.0L752.4,231.6L750.8,232.3L751.0,235.2L751.1,238.8L749.5,239.2L748.4,238.5L749.1,236.1L748.7,233.7L747.7,233.7L746.9,232.0L748.0,230.4L748.3,228.4L749.6,224.6L750.1,223.6L752.2,221.7L754.2,222.5L757.3,222.8L760.2,222.7L762.7,220.9L763.1,221.4Z M771.7,222.2L771.6,224.4L770.3,224.1L769.9,225.6L770.9,226.9L770.2,227.2L769.2,225.7L768.5,222.5L769.0,220.5L769.8,219.6L770.0,220.9L771.5,221.1L771.7,222.2Z M714.5,239.6L711.8,239.7L709.7,237.6L706.5,235.6L705.4,234.0L703.5,232.0L702.3,230.1L700.4,226.6L698.2,224.5L697.4,222.4L696.5,220.4L694.2,218.9L692.9,216.7L691.1,215.3L688.5,212.6L688.2,211.3L689.8,211.4L693.7,211.9L695.9,214.3L697.9,216.0L699.2,217.1L701.6,219.8L704.1,219.8L706.2,221.5L707.7,223.6L709.6,224.7L708.6,226.8L710.0,227.6L710.9,227.7L711.3,229.5L712.2,230.9L714.1,231.1L715.3,232.7L714.6,235.8L714.5,239.6Z M744.7,220.4L747.5,222.7L744.5,223.0L743.7,224.7L743.8,227.0L741.4,228.7L741.3,231.2L740.4,235.0L740.0,234.1L737.2,235.3L736.2,233.7L734.4,233.6L733.1,232.8L730.2,233.7L729.3,232.5L727.6,232.6L725.6,232.3L725.2,229.0L723.9,228.3L722.7,226.1L722.4,224.0L722.7,221.6L724.2,220.0L726.0,220.8L727.9,220.4L728.4,218.3L729.5,217.8L732.5,217.2L734.3,215.3L735.5,213.7L736.5,212.7L738.6,211.4L740.6,209.6L741.8,207.7L742.8,207.7L744.1,208.9L744.2,210.0L745.9,210.7L748.0,211.5L747.8,212.5L746.1,212.6L746.5,213.8L744.7,214.7L743.3,216.9L745.1,219.3L744.7,220.4Z M765.9,204.0L766.2,205.6L766.3,207.0L765.5,209.3L764.6,206.8L763.4,208.0L764.2,209.9L763.5,211.0L760.6,209.6L759.9,207.8L760.6,206.6L759.0,205.4L758.2,206.5L757.1,206.4L755.2,207.8L754.8,207.0L755.8,204.9L757.4,204.2L758.7,203.3L759.6,204.4L761.5,203.7L761.9,202.6L763.7,202.5L763.5,200.6L765.6,201.8L765.8,203.0L765.9,204.0Z M653.0,209.5L650.9,210.1L649.7,208.1L649.2,204.5L650.4,200.4L652.1,201.8L653.3,203.6L654.5,206.2L654.1,208.8L653.0,209.5Z M297.7,199.7L295.6,200.0L295.1,199.8L295.9,199.1L295.8,198.1L297.2,197.8L297.8,197.9L297.7,199.7Z M760.0,199.3L759.1,200.1L758.3,201.7L757.5,202.4L756.0,200.7L756.5,200.0L757.1,199.3L757.4,197.8L758.7,197.6L758.3,199.3L760.2,196.9L760.0,199.3Z M746.3,201.7L742.9,204.1L744.2,202.3L746.0,200.8L747.5,199.1L748.8,196.6L749.2,198.6L747.6,200.0L746.3,201.7Z M754.7,195.3L756.2,196.0L757.8,196.0L757.8,197.1L756.6,198.1L755.0,198.9L754.9,197.7L755.1,196.5L754.7,195.3Z M763.8,194.6L764.5,197.4L762.5,196.7L762.6,197.6L763.2,199.1L762.0,199.7L761.9,197.9L761.1,197.8L760.8,196.3L762.2,196.5L762.2,195.5L760.7,193.6L763.1,193.7L763.8,194.6Z M753.8,192.3L753.2,194.5L752.1,193.2L750.8,191.3L752.9,191.4L753.8,192.3Z M753.3,178.7L754.8,179.5L755.6,178.8L755.8,179.4L755.4,180.5L756.3,182.3L755.6,184.3L754.2,185.2L753.8,187.2L754.3,189.2L755.6,189.5L756.8,189.2L759.9,190.5L759.6,191.9L760.5,192.5L760.2,193.7L758.2,192.4L757.3,191.1L756.7,192.0L755.1,190.5L752.8,190.9L751.6,190.4L751.7,189.3L752.5,188.7L751.7,188.1L751.4,189.0L750.2,187.6L749.8,186.5L749.7,184.1L750.7,184.9L751.0,181.0L751.8,178.7L753.3,178.7Z M286.0,179.4L285.4,180.1L283.5,180.0L282.0,180.1L281.9,179.1L282.3,178.7L284.3,178.7L285.6,178.9L286.0,179.4Z M257.7,180.3L257.0,180.7L255.6,180.3L254.2,179.4L254.5,178.9L255.5,178.7L256.1,178.8L257.8,179.0L259.1,179.6L259.5,180.3L257.7,180.3Z M268.6,175.3L270.7,175.7L271.0,175.3L273.0,175.3L274.5,175.9L275.1,175.9L275.6,176.8L276.9,176.7L276.9,177.5L278.0,177.6L279.2,178.5L278.3,179.5L277.1,178.9L275.9,179.0L275.1,178.9L274.7,179.4L273.7,179.5L273.3,178.9L272.5,179.3L271.5,181.0L270.9,180.6L270.7,179.9L269.1,179.5L267.9,179.6L266.4,179.5L265.2,179.9L263.9,179.1L264.1,178.3L266.4,178.7L268.3,178.9L269.2,178.3L268.0,177.2L268.0,176.3L266.5,175.9L267.0,175.2L268.6,175.3Z M725.8,178.3L723.7,179.5L721.6,178.7L721.6,176.6L722.8,175.4L725.5,174.7L727.0,174.8L727.5,175.8L726.4,176.9L725.8,178.3Z M61.1,177.3L60.8,177.7L60.2,177.4L60.2,176.7L59.8,175.7L59.9,175.5L60.4,175.1L60.2,174.6L60.3,174.3L60.5,174.4L61.5,174.8L61.9,175.0L62.3,175.4L63.0,176.2L62.9,176.4L61.9,176.9L61.1,177.3Z M59.8,173.4L59.0,173.6L58.5,173.0L58.2,172.8L58.2,172.7L58.5,172.5L59.4,172.7L60.0,173.1L59.8,173.4Z M58.1,172.1L58.0,172.3L56.7,172.3L56.9,171.9L58.1,172.1Z M55.9,171.7L55.7,171.8L55.6,171.8L54.7,171.7L54.4,171.2L54.3,171.1L54.9,170.7L55.1,170.9L55.9,171.7Z M51.6,170.0L51.3,170.3L50.5,169.8L50.6,169.7L51.0,169.4L51.6,169.5L51.6,170.0Z M250.8,168.1L251.8,169.0L254.1,168.7L255.0,169.3L257.1,170.9L258.7,172.0L259.5,171.9L261.0,172.5L260.8,173.2L262.7,173.3L264.6,174.3L264.3,174.9L262.6,175.2L260.9,175.3L259.2,175.1L255.6,175.4L257.3,174.0L256.3,173.3L254.7,173.2L253.8,172.4L253.2,171.0L251.8,171.1L249.5,170.4L248.7,169.9L245.5,169.5L244.6,169.0L245.5,168.4L243.1,168.3L241.3,169.6L240.2,169.6L239.9,170.2L238.6,170.5L237.6,170.3L238.9,169.5L239.4,168.6L240.6,168.0L241.8,167.5L243.7,167.3L244.3,167.0L246.5,167.2L248.5,167.2L250.8,168.1Z M256.2,165.6L255.5,165.7L254.9,164.3L254.0,163.6L254.5,162.0L255.3,162.1L256.2,164.2L256.2,165.6Z M752.9,168.0L751.9,170.1L750.6,168.0L750.3,166.1L751.7,163.7L753.7,161.8L754.9,162.5L754.4,164.0L752.9,168.0Z M255.4,158.5L252.7,159.0L252.6,158.0L253.7,157.8L255.4,157.9L255.4,158.5Z M257.5,158.5L257.1,160.3L256.6,160.0L256.6,158.7L255.5,157.7L255.5,157.4L257.5,158.5Z M786.6,139.6L786.9,140.5L785.5,142.0L784.5,141.2L783.2,141.8L782.5,143.2L780.9,142.5L780.9,141.3L782.3,139.9L783.7,140.1L784.8,139.1L786.6,139.6Z M536.4,135.8L534.7,136.9L534.9,137.4L535.0,137.6L532.4,138.6L531.2,138.2L530.6,137.2L531.8,137.2L532.0,137.1L532.4,136.5L534.2,136.6L536.4,135.8Z M509.3,135.7L510.6,136.6L512.6,136.4L514.4,136.6L514.4,137.0L515.7,136.7L515.4,137.5L511.8,137.7L511.8,137.3L508.8,136.8L509.3,135.7Z M488.8,129.4L487.9,131.4L488.3,132.2L487.8,133.4L485.8,132.5L484.6,132.2L481.1,131.0L481.4,129.7L484.3,129.9L486.9,129.6L488.8,129.4Z M473.0,122.0L474.5,123.7L474.2,127.1L473.0,126.9L472.0,127.7L471.1,127.1L471.0,124.1L470.4,122.6L471.8,122.8L473.0,122.0Z M802.4,132.1L801.5,134.1L801.9,135.4L800.6,137.2L797.4,138.3L793.0,138.5L789.5,141.3L787.8,140.4L787.7,138.5L783.3,139.1L780.4,140.2L777.5,140.3L780.0,142.1L778.3,146.4L776.7,147.4L775.5,146.5L776.1,144.2L774.5,143.5L773.5,141.8L775.9,141.0L777.2,139.4L779.7,138.1L781.5,136.4L786.5,135.7L789.2,136.2L791.8,131.7L793.5,132.9L797.1,130.4L798.6,129.5L800.1,126.4L799.7,123.6L800.8,122.0L803.4,121.6L804.8,125.0L804.7,127.0L802.4,129.6L802.4,132.1Z M473.9,119.6L473.1,121.5L471.9,121.0L471.4,119.4L471.9,118.4L473.5,117.5L473.9,119.6Z M809.8,114.6L811.5,115.1L813.3,114.0L813.9,116.8L810.2,117.5L808.0,120.0L804.0,118.3L802.7,121.0L799.9,121.1L799.5,118.6L800.8,116.7L803.4,116.5L804.2,113.1L804.9,111.1L807.9,113.7L809.8,114.6Z M290.8,108.6L292.7,109.0L295.0,108.9L293.7,109.9L292.8,110.1L289.6,109.0L289.0,108.2L290.0,107.4L290.8,108.6Z M295.5,102.2L294.3,102.3L291.0,101.5L288.7,100.3L289.6,100.1L292.9,100.7L295.4,101.8L295.5,102.2Z M141.2,103.7L140.0,104.1L135.9,102.9L135.1,102.1L132.9,101.2L132.4,100.5L129.9,100.0L128.9,98.7L129.1,98.1L131.7,98.6L133.3,99.0L135.6,99.3L136.5,100.1L137.7,101.3L140.2,102.3L141.2,103.7Z M309.7,98.3L308.0,100.5L309.6,99.6L311.3,100.2L310.4,101.0L312.7,101.7L313.8,101.1L316.3,101.9L315.5,103.7L317.3,103.3L317.6,104.6L318.4,106.2L317.3,108.4L316.2,108.5L314.6,108.0L315.1,105.9L314.4,105.6L311.5,107.8L310.0,107.7L311.8,106.5L309.4,105.9L306.7,106.1L301.8,106.0L301.4,105.3L303.0,104.4L301.9,103.7L304.0,102.2L306.6,98.2L308.2,96.8L310.3,95.9L311.5,96.0L311.0,96.7L309.7,98.3Z M118.2,89.9L120.6,89.7L119.9,92.5L122.1,94.5L121.1,94.5L119.5,93.4L118.6,92.3L117.4,91.5L116.9,90.4L117.0,89.6L118.2,89.9Z M809.1,98.1L811.6,102.6L807.9,101.7L806.4,105.3L808.8,107.9L808.8,109.7L806.9,108.1L805.2,110.1L804.8,108.0L805.0,105.6L804.8,102.9L805.3,101.0L805.5,97.6L804.0,95.2L804.2,91.7L806.5,90.6L805.5,89.4L806.6,89.1L807.3,90.7L808.2,93.1L808.1,95.6L809.1,98.1Z M433.0,94.3L428.6,95.8L425.1,95.5L427.1,92.8L425.8,90.3L429.2,88.3L431.1,87.2L433.2,87.1L435.8,88.6L434.5,90.3L434.9,92.1L433.0,94.3Z M481.7,86.0L480.2,88.0L477.6,86.6L477.3,85.5L480.9,84.7L481.7,86.0Z M67.5,82.2L65.0,83.2L63.7,82.5L63.3,81.3L65.6,80.5L66.9,80.1L68.6,80.2L69.6,81.0L67.5,82.2Z M442.5,78.4L439.8,81.1L442.4,80.8L445.1,80.8L444.5,82.8L442.2,85.1L444.8,85.2L447.2,88.4L448.9,88.8L450.5,91.7L451.2,92.7L454.2,93.2L453.9,94.8L452.6,95.5L453.6,96.8L451.4,98.1L448.0,98.1L443.8,98.8L442.6,98.3L441.0,99.4L438.6,99.1L436.9,100.1L435.6,99.6L439.2,97.0L441.5,96.4L437.5,96.0L436.8,95.0L439.4,94.2L438.1,92.9L438.5,91.3L442.3,91.5L442.6,90.0L440.9,88.5L437.9,88.0L437.3,87.3L438.2,86.2L437.4,85.5L436.0,86.7L435.9,84.3L434.6,83.0L435.5,80.5L437.5,78.4L439.5,78.6L442.5,78.4Z M36.1,75.2L34.5,75.6L32.9,75.1L31.4,74.5L33.8,74.0L35.8,74.3L36.1,75.2Z M251.8,69.6L250.9,70.9L249.8,70.7L249.1,70.0L249.2,69.8L250.2,69.0L251.2,69.1L251.8,69.6Z M245.3,68.2L242.3,69.6L240.6,69.5L240.0,68.9L241.9,67.7L245.3,67.7L245.3,68.2Z M20.7,65.5L22.2,66.0L23.8,65.8L25.8,66.4L28.3,66.8L28.1,67.0L26.2,67.6L24.3,67.0L23.3,66.6L21.1,66.7L20.5,66.5L20.7,65.5Z M237.1,60.9L237.6,62.0L238.8,61.6L240.3,62.2L243.0,63.1L245.9,63.9L246.1,65.1L248.0,64.9L249.7,65.7L247.5,66.5L243.6,65.9L242.2,64.7L239.8,66.1L236.2,67.4L235.3,65.9L231.9,66.1L234.1,64.9L234.4,62.9L235.3,60.7L237.1,60.9Z M413.7,58.9L413.1,60.5L416.0,62.2L412.7,64.1L405.5,65.8L403.4,66.3L400.1,65.9L393.1,65.1L395.6,64.0L390.1,62.8L394.5,62.3L394.4,61.6L389.2,61.0L390.9,59.3L394.7,59.0L398.6,60.7L402.4,59.3L405.5,60.0L409.6,58.7L413.7,58.9Z M260.3,57.1L257.5,57.3L256.9,56.0L258.0,54.6L260.3,54.3L262.2,55.0L262.2,56.0L262.0,56.4L260.3,57.1Z M0.0,52.6L6.1,54.5L12.7,57.0L12.5,58.5L14.1,59.2L13.6,57.3L20.4,57.7L25.3,60.1L22.8,61.1L18.7,61.4L18.6,63.9L17.6,64.4L15.3,64.3L13.4,63.4L10.0,62.7L9.5,61.6L6.9,61.2L4.1,61.5L2.7,60.6L3.3,59.7L0.3,60.3L1.4,61.5L0.0,62.6L900.0,62.6L896.8,63.7L893.5,63.5L895.8,64.8L897.3,66.9L898.4,67.5L898.7,68.6L898.1,69.2L893.4,68.7L886.4,70.6L884.2,70.9L880.4,72.6L876.7,74.2L875.8,75.3L872.3,73.6L865.7,75.5L864.6,74.6L862.2,75.7L858.9,75.3L858.0,77.0L855.0,79.4L855.1,80.4L858.0,81.0L857.6,84.6L855.3,84.7L854.3,86.8L855.3,87.9L850.9,89.1L850.1,92.0L846.3,92.6L845.6,95.1L842.0,97.5L841.0,95.8L840.0,92.1L838.6,86.5L839.8,83.1L841.9,81.6L842.0,80.4L845.9,79.9L850.4,76.7L854.7,74.1L859.2,72.1L861.2,68.6L858.1,68.8L856.6,70.9L850.3,73.6L848.3,70.6L841.8,71.4L835.5,75.6L837.6,77.1L832.0,77.8L828.2,78.0L828.3,76.2L824.5,75.9L821.4,77.1L813.7,76.7L805.5,77.4L797.4,82.3L787.8,88.2L791.8,88.5L793.0,90.1L795.4,90.6L797.0,89.4L799.8,89.5L803.4,92.3L803.4,94.4L801.5,96.9L801.3,99.9L800.2,103.9L796.4,107.5L795.5,109.2L792.2,112.1L788.8,115.0L787.2,116.5L783.8,118.0L782.3,118.0L780.7,116.8L777.3,118.6L777.0,119.5L776.0,119.3L774.9,120.1L774.2,121.0L774.3,122.8L773.0,123.3L772.5,123.8L771.6,124.5L769.9,124.9L768.8,125.6L768.8,126.7L768.5,127.0L769.5,127.4L770.9,128.5L773.0,131.4L773.6,133.0L773.7,135.9L772.7,137.3L770.5,137.8L768.5,138.8L766.2,139.0L765.9,137.7L766.4,135.8L765.3,133.2L767.1,132.8L765.4,130.6L764.2,130.1L763.9,130.6L763.2,130.8L763.1,130.4L762.5,130.1L761.8,129.7L762.5,128.6L763.1,128.3L762.8,127.9L763.5,126.5L763.3,126.1L761.8,125.8L760.7,125.2L757.2,125.9L755.3,127.1L752.6,127.8L754.0,126.6L753.4,125.6L755.4,123.9L754.1,122.6L751.9,123.5L749.1,125.3L747.6,126.9L745.1,127.0L743.8,128.2L745.2,129.8L747.2,130.3L747.3,131.4L749.3,132.1L752.1,130.3L754.3,131.3L755.9,131.4L756.3,132.7L752.8,133.4L751.6,134.7L749.2,136.0L747.9,137.7L750.6,139.1L751.6,141.6L753.1,143.8L754.8,145.8L754.7,147.6L753.2,148.3L753.8,149.6L755.2,150.4L754.8,152.5L754.2,154.4L752.8,154.7L751.0,157.4L749.0,160.6L746.6,163.6L743.2,165.9L739.7,168.0L736.9,168.3L735.4,169.4L734.5,168.6L733.1,169.9L729.6,171.1L727.0,171.5L726.1,174.1L724.7,174.3L724.1,172.5L724.7,171.5L721.3,170.7L720.1,171.1L716.8,173.3L714.7,175.6L714.2,177.4L716.1,180.0L718.4,183.3L720.7,184.8L722.2,186.8L723.3,191.4L723.0,195.8L720.9,197.5L718.1,199.1L716.0,201.2L712.9,203.5L712.0,201.9L712.7,200.2L710.8,198.8L708.7,198.4L707.7,197.1L706.5,194.5L704.2,193.4L702.1,193.4L702.4,191.5L700.2,191.5L700.0,194.2L698.7,197.9L697.9,200.1L698.1,201.9L699.7,202.0L700.7,204.3L701.2,206.4L702.5,207.9L704.1,208.1L705.4,209.4L705.9,209.7L707.4,211.2L708.5,212.9L708.6,214.5L708.3,215.7L708.6,216.5L708.8,218.0L709.6,218.7L710.6,220.9L710.6,221.8L708.8,221.9L706.4,220.1L703.5,218.1L703.2,216.8L701.7,215.2L701.4,213.1L700.5,211.7L700.8,209.9L700.2,208.8L699.2,207.9L698.8,206.6L697.5,205.2L696.3,204.0L695.9,205.5L695.4,204.1L695.6,202.6L696.4,200.2L696.1,198.3L696.9,196.4L696.1,194.9L696.3,192.2L695.3,190.9L694.4,187.9L694.0,184.7L692.9,182.7L691.3,183.9L688.4,185.7L687.0,185.5L685.5,184.9L686.3,181.8L685.8,179.5L683.9,176.6L684.2,175.7L682.7,175.4L680.9,173.3L680.2,172.0L680.1,170.7L679.6,169.5L678.5,168.1L676.2,168.0L676.5,169.0L675.7,170.4L674.6,169.9L674.3,170.4L673.5,170.1L672.6,169.9L672.2,170.8L670.5,170.7L667.4,171.3L667.6,173.1L666.2,174.6L662.6,176.3L659.9,179.2L658.0,180.8L655.5,182.5L655.5,183.6L654.2,184.2L652.0,185.1L650.8,185.3L650.1,187.2L650.6,190.4L650.7,192.5L649.7,194.9L649.6,199.1L648.3,199.2L647.2,201.1L648.0,202.0L645.7,202.7L644.9,204.4L643.8,205.1L641.5,202.7L640.3,199.3L639.4,196.7L638.5,195.5L637.2,193.1L636.5,190.0L636.1,188.5L633.8,185.0L632.8,180.2L632.0,177.0L632.1,174.0L631.6,171.6L627.9,173.1L626.2,172.8L622.9,169.8L624.1,168.9L623.4,167.9L620.4,165.8L618.6,165.1L617.9,163.3L615.9,161.4L611.3,161.9L607.3,162.0L603.7,162.3L599.0,161.5L596.3,161.0L593.5,160.7L592.4,157.6L591.2,157.1L589.3,157.6L586.8,158.8L583.7,158.0L581.2,156.0L578.8,155.3L577.1,153.0L575.3,149.6L573.9,150.0L572.4,149.2L571.4,150.2L569.9,150.1L570.5,151.2L570.2,151.7L571.0,153.6L572.0,155.8L573.3,156.3L573.7,157.2L575.4,158.3L575.5,159.3L575.3,160.1L575.6,161.0L576.3,161.7L576.7,162.5L577.0,163.1L576.9,161.3L577.5,160.0L578.2,159.7L579.0,160.5L579.0,162.0L578.5,163.4L578.9,164.4L579.4,164.3L579.5,165.0L581.4,164.6L583.5,164.6L585.0,164.7L586.7,163.0L588.6,161.4L590.2,159.9L590.9,159.0L591.2,159.2L591.0,160.3L590.6,160.7L591.0,162.7L592.1,164.4L593.5,165.3L595.3,165.6L596.8,166.1L597.9,167.5L598.6,168.3L599.5,168.7L599.5,169.2L598.6,170.7L598.2,171.4L597.2,172.2L596.2,173.9L595.1,173.8L594.6,174.4L594.2,175.7L594.5,177.3L594.2,177.6L593.1,177.6L591.5,178.6L591.3,179.8L590.7,180.3L589.2,180.3L588.2,180.9L588.2,181.9L587.0,182.6L585.6,182.4L583.9,183.2L582.8,183.4L581.0,184.0L580.5,185.2L580.4,186.0L577.9,187.1L573.9,188.2L571.7,190.0L570.6,190.1L569.8,190.0L568.4,191.0L566.8,191.5L564.7,191.6L564.1,191.8L563.5,192.4L562.9,192.6L562.5,193.3L561.2,193.2L560.4,193.5L558.7,193.4L558.1,191.9L558.1,190.6L557.7,189.8L557.2,188.0L556.5,187.0L557.0,186.8L556.8,185.7L557.1,185.2L557.0,184.1L556.6,183.1L555.9,182.3L555.7,181.3L554.4,180.4L553.1,178.3L552.3,176.3L550.6,174.6L549.5,174.2L547.8,171.8L547.6,170.0L547.7,168.6L546.2,165.8L545.1,164.8L543.7,164.3L542.9,162.9L543.0,162.3L542.3,161.0L541.6,160.4L540.6,158.6L539.1,156.6L537.8,154.8L536.6,154.9L537.0,153.5L537.1,152.6L537.4,151.6L537.3,151.2L536.6,152.3L536.1,154.1L535.4,155.4L534.8,155.9L534.0,155.1L532.8,154.0L531.1,150.4L530.8,150.6L531.8,153.2L533.4,155.8L535.3,159.6L536.2,161.0L537.0,162.4L539.2,165.2L538.7,165.6L538.8,167.2L541.7,169.5L542.2,170.0L543.0,172.5L542.4,172.9L542.8,175.5L543.7,178.5L544.7,179.1L546.0,180.0L547.5,182.9L548.2,185.2L549.5,186.4L552.9,188.8L554.3,190.2L555.7,191.6L556.5,192.5L557.7,193.3L558.3,194.0L558.2,195.1L556.8,195.7L557.9,196.3L558.7,196.8L559.2,197.8L560.3,198.9L561.5,198.9L563.9,198.3L566.6,198.0L568.8,197.2L570.1,197.0L570.9,196.6L572.4,196.5L573.2,196.4L574.3,196.1L575.6,195.8L576.8,194.9L577.8,194.9L577.8,195.6L577.6,197.1L577.6,198.4L577.1,199.3L576.4,202.0L575.2,204.8L573.6,208.0L571.5,211.7L569.4,214.4L566.4,217.9L563.9,219.9L560.2,222.4L557.8,224.3L555.1,227.3L554.5,228.6L554.0,229.2L552.2,230.2L551.6,231.2L550.7,231.4L550.3,233.2L549.5,234.2L549.0,235.9L548.0,236.7L546.9,239.8L547.0,241.2L548.6,242.1L548.7,242.7L548.0,244.3L548.1,245.0L548.0,246.2L548.8,247.8L549.9,250.2L550.8,250.8L551.2,251.9L551.1,254.4L551.4,256.6L551.5,260.5L551.9,261.7L551.2,263.5L550.2,265.3L548.6,266.8L546.3,267.8L543.5,269.0L540.7,271.6L539.7,272.1L538.0,273.9L537.0,274.5L536.8,276.2L537.9,278.1L538.4,279.6L538.5,280.3L538.9,280.2L538.8,282.7L538.4,283.8L539.0,284.3L538.6,285.3L537.6,286.2L535.5,287.0L532.5,288.4L531.4,289.3L531.7,290.4L532.3,290.5L532.1,291.9L531.4,293.7L531.2,295.8L530.5,296.9L528.8,298.1L528.3,298.5L527.3,299.8L526.6,301.1L525.1,302.9L522.3,305.4L520.5,306.9L518.7,308.1L516.0,309.0L514.8,309.2L514.5,309.9L512.9,309.5L511.7,310.0L509.0,309.5L507.5,309.8L506.4,309.7L503.9,310.6L501.7,311.0L500.2,312.0L499.0,312.0L498.0,311.2L497.1,311.1L496.1,310.0L495.9,310.3L495.6,309.7L495.6,308.2L494.8,306.5L495.6,306.1L495.6,304.2L493.9,301.8L492.7,299.7L492.7,299.7L490.9,296.4L489.0,294.6L488.0,292.7L487.5,290.3L486.9,288.5L486.0,284.6L486.0,281.6L485.6,280.3L484.7,279.2L483.4,277.2L482.1,274.2L481.5,272.6L479.5,270.2L479.3,268.3L479.1,266.7L479.4,264.5L480.3,262.2L480.4,261.1L481.3,258.9L481.8,257.8L483.3,256.2L484.1,255.1L484.3,253.2L484.2,251.8L483.5,250.9L482.8,249.4L482.2,247.9L482.3,247.4L483.1,246.4L482.3,244.0L481.8,242.3L480.6,240.7L480.8,240.2L480.5,239.5L479.8,237.6L477.7,234.9L475.2,232.4L473.5,230.4L472.0,227.8L472.1,226.9L472.6,226.1L473.2,224.3L473.7,222.5L473.3,222.1L474.1,219.3L474.5,217.3L473.5,215.7L472.4,215.2L471.9,214.1L471.2,213.8L471.3,213.1L468.7,214.0L467.7,213.8L466.7,214.4L464.7,214.3L463.4,212.8L462.6,211.0L460.8,209.3L458.9,209.4L456.7,209.4L454.7,209.6L452.7,210.2L448.7,211.6L447.3,212.5L445.1,213.2L442.9,212.5L441.7,212.5L440.0,212.1L438.4,212.1L435.4,212.5L433.7,213.2L431.2,214.2L430.7,214.1L430.1,214.1L427.5,212.9L425.2,211.0L423.1,209.6L421.4,208.0L420.7,207.8L418.9,206.8L417.6,205.5L417.2,204.6L416.9,202.7L415.8,201.3L414.8,200.3L414.2,200.0L413.6,199.5L413.3,198.4L412.9,197.8L412.2,197.4L410.8,196.4L409.8,196.2L409.2,195.5L409.2,195.1L408.5,194.6L408.3,194.0L407.9,192.1L408.2,191.0L407.2,189.1L405.9,188.2L407.0,187.7L408.2,185.9L408.8,184.7L408.6,183.3L409.3,182.1L409.6,179.7L409.4,177.3L409.1,176.0L409.3,174.8L408.7,173.6L407.3,172.5L407.5,171.4L407.6,170.3L408.5,169.6L409.3,168.3L409.2,167.5L410.0,165.7L411.4,164.1L412.3,163.7L412.9,162.2L413.0,160.9L413.9,159.4L415.6,158.5L417.2,155.9L418.5,154.9L420.8,154.6L422.8,152.9L424.0,152.3L426.1,150.2L425.5,147.1L426.4,144.9L426.7,143.6L428.4,141.9L430.9,140.8L432.7,139.7L434.4,137.1L435.2,135.6L437.0,135.6L438.5,136.7L440.9,136.5L443.5,137.1L444.6,137.1L447.0,135.7L449.7,135.3L451.3,134.2L453.7,133.5L457.9,133.0L462.0,132.8L463.3,133.2L465.7,132.2L468.3,132.2L469.3,132.8L471.1,132.6L473.8,131.6L475.5,131.9L475.4,133.2L477.6,132.3L477.8,132.7L476.5,134.0L476.5,135.1L477.3,135.8L477.0,137.9L475.4,139.2L475.9,140.5L477.1,140.6L477.8,141.8L478.7,142.2L481.7,143.0L482.7,142.8L484.8,143.2L488.1,144.3L489.3,146.6L491.5,147.0L495.0,148.1L497.7,149.3L498.9,148.7L500.1,147.5L499.5,145.6L500.3,144.4L502.1,143.2L503.9,142.9L507.2,143.4L508.1,144.5L509.0,144.5L509.8,145.0L512.3,145.2L512.9,146.1L516.2,146.0L518.6,146.7L521.1,147.4L522.3,147.8L524.2,147.0L525.2,146.3L527.4,146.1L529.2,146.4L529.9,147.7L530.5,146.8L532.5,147.4L534.4,147.6L535.7,147.0L536.4,146.1L536.2,146.0L536.9,144.8L537.4,142.9L537.7,142.3L537.8,142.3L538.7,140.2L540.0,138.5L540.0,138.4L539.8,136.5L540.4,135.4L539.5,134.3L540.4,133.4L538.9,133.6L536.8,133.0L535.1,134.5L531.3,134.7L529.3,133.4L526.6,133.3L526.0,134.3L524.2,134.6L521.8,133.3L519.1,133.4L517.6,130.9L515.8,129.5L517.0,127.5L515.4,126.3L518.2,123.9L522.1,123.9L523.1,122.0L527.9,122.3L530.9,120.7L533.8,120.0L537.9,119.9L542.3,121.7L545.9,122.6L548.8,122.2L550.9,122.5L553.9,121.2L554.3,120.1L553.6,118.4L552.2,117.5L550.8,117.2L549.9,116.4L546.7,114.3L543.8,113.4L541.7,111.9L543.5,111.5L545.6,109.4L544.2,108.4L547.9,107.4L547.8,106.8L545.6,107.2L543.6,107.4L541.9,108.3L539.6,108.4L537.4,109.3L537.5,110.9L538.8,111.5L541.3,111.3L540.8,112.2L538.1,112.7L534.7,114.1L533.3,113.6L533.9,112.4L531.1,111.7L531.6,111.2L534.0,110.4L533.2,109.8L529.4,109.2L529.2,108.2L526.9,108.5L525.9,109.9L524.0,111.8L524.1,112.4L522.9,113.0L522.1,112.7L521.4,115.7L520.1,116.8L519.2,118.6L520.0,120.0L520.3,120.9L522.5,121.7L522.0,122.4L519.0,122.5L518.0,123.3L515.9,124.6L515.1,123.5L515.1,122.9L513.6,122.9L512.3,122.6L509.3,123.3L511.0,124.7L509.7,125.1L508.4,125.1L507.0,123.8L506.6,124.4L507.1,125.9L508.4,127.0L507.4,127.6L508.8,128.7L510.1,129.4L510.1,130.9L507.8,130.2L508.5,131.5L506.9,131.7L507.9,133.9L506.2,134.0L504.2,132.9L503.2,130.9L502.8,129.2L501.8,128.1L500.5,126.6L500.4,125.9L499.9,125.8L499.9,125.2L498.5,124.4L498.3,123.2L498.5,121.5L498.8,120.7L498.4,120.3L497.9,120.1L497.2,119.3L496.1,118.8L493.8,117.9L492.3,117.0L490.0,116.2L487.9,114.4L488.4,114.2L487.3,113.2L487.3,112.3L485.6,111.9L484.9,113.0L484.1,112.2L484.2,111.3L484.3,111.3L484.8,111.0L482.9,110.7L480.8,111.5L481.0,112.8L480.6,113.5L481.5,114.8L483.8,116.0L485.1,118.1L487.9,120.1L489.8,120.1L490.4,120.6L489.7,121.1L492.0,122.0L493.8,122.8L495.9,124.1L496.2,124.6L495.7,125.5L494.3,124.3L492.2,123.9L491.1,125.5L492.9,126.4L492.6,127.7L491.6,127.9L490.3,130.0L489.2,130.2L489.2,129.5L489.7,128.1L490.3,127.6L489.3,126.1L488.5,124.9L487.5,124.6L486.8,123.5L485.1,123.0L484.1,122.0L482.2,121.9L480.3,120.7L478.0,119.1L476.3,117.7L475.5,115.2L474.3,114.9L472.2,114.1L471.1,114.4L469.6,115.6L468.6,115.8L466.3,117.2L461.4,116.5L457.8,117.3L457.5,118.8L457.6,120.3L455.2,121.9L452.0,122.5L451.8,123.3L450.3,124.7L449.3,126.7L450.3,128.2L448.8,129.3L448.3,130.9L446.4,131.4L444.6,133.3L441.5,133.4L439.1,133.3L437.5,134.2L436.6,135.1L435.3,134.9L434.4,134.1L433.7,132.6L431.4,132.3L430.4,132.9L429.0,132.6L427.8,132.8L428.1,130.9L427.9,129.3L426.8,129.1L426.2,128.2L426.4,126.5L427.4,125.6L427.6,124.6L428.1,123.1L428.0,122.0L427.5,121.1L427.4,120.3L427.5,118.5L426.5,117.4L430.1,115.6L433.1,116.1L436.5,116.1L439.1,116.5L441.2,116.4L445.2,116.4L446.5,114.9L447.0,110.0L444.4,107.3L442.6,106.1L438.8,105.1L438.5,103.3L441.8,102.7L446.0,103.4L445.2,100.6L447.5,101.6L453.3,99.7L454.1,97.6L456.3,97.1L458.3,96.6L459.6,95.9L461.8,92.3L465.2,91.2L467.3,91.3L467.8,90.8L469.8,90.6L470.3,91.2L472.0,89.9L471.4,89.0L471.3,87.6L470.3,86.2L470.2,83.6L470.6,83.0L471.4,82.2L473.6,82.1L474.4,81.4L476.4,80.7L476.4,82.0L475.6,82.8L475.9,83.5L477.3,83.9L476.7,84.8L475.9,84.5L474.1,86.3L474.8,87.5L474.8,88.5L477.4,89.1L477.3,90.0L479.9,89.5L481.3,88.8L484.1,89.8L485.3,90.6L487.0,89.9L490.9,88.7L494.1,87.9L496.6,88.3L496.7,88.9L499.2,88.9L499.7,87.8L503.2,87.0L502.6,84.9L502.7,83.0L504.0,81.5L506.3,80.6L508.3,82.5L510.3,82.4L510.8,80.5L511.1,79.0L510.2,79.4L508.6,78.5L508.4,77.0L511.5,76.3L514.7,76.0L517.4,76.4L520.0,76.3L522.8,74.9L520.2,73.7L515.6,73.9L511.2,74.9L507.2,75.4L505.7,74.0L503.3,73.2L503.9,70.7L502.6,68.5L503.8,67.0L506.1,65.5L511.8,62.7L513.5,62.2L513.2,61.2L509.8,60.0L505.5,60.7L503.0,62.4L503.4,64.0L499.5,66.0L494.6,68.1L492.8,71.6L494.6,73.4L497.0,74.8L494.7,77.6L492.1,78.2L491.1,82.4L489.7,84.7L486.7,84.5L485.2,86.5L482.4,86.6L481.6,84.2L479.5,81.4L477.6,77.9L475.9,76.3L471.0,79.2L467.6,79.8L464.2,78.5L463.3,75.8L462.5,70.1L464.8,68.5L471.4,66.4L476.3,63.8L480.9,60.3L486.9,55.5L491.1,53.6L498.0,50.5L503.4,49.4L507.6,49.5L511.4,47.4L515.9,47.5L520.4,47.0L528.2,48.9L525.0,49.5L527.8,51.1L530.3,50.2L534.4,51.7L541.3,52.3L550.7,55.2L552.7,56.4L552.8,58.0L550.0,59.3L546.0,60.0L534.8,58.1L533.0,58.4L537.0,60.2L537.4,64.0L540.6,64.7L542.5,65.4L542.9,64.2L541.3,63.1L542.9,62.1L549.0,63.7L551.1,63.1L549.4,61.3L555.2,58.8L557.5,59.0L559.9,59.8L561.3,58.1L559.2,56.6L560.5,55.1L558.6,53.6L565.6,54.4L567.1,55.8L563.9,56.1L563.9,57.5L565.9,58.3L569.7,57.8L570.3,56.2L575.6,55.0L584.3,52.9L586.2,53.0L583.7,54.5L586.8,54.8L588.6,53.9L593.3,53.8L597.0,52.8L599.9,54.3L602.7,52.6L600.1,51.2L601.4,50.4L608.8,51.1L612.2,51.9L621.3,54.8L623.0,53.5L620.4,52.1L620.3,51.6L617.3,51.4L618.2,50.2L616.8,48.2L616.7,47.4L621.3,45.2L623.0,42.9L624.8,42.4L631.5,43.1L632.0,44.4L629.6,46.5L631.2,47.3L632.0,49.0L631.4,52.4L634.2,54.0L633.1,55.6L628.2,59.2L631.1,59.6L632.0,58.7L634.8,58.0L635.5,56.8L637.6,55.6L636.2,54.2L637.3,52.5L634.6,52.3L634.0,50.9L636.0,48.4L632.8,46.4L637.2,44.7L636.6,42.9L637.9,42.9L639.2,44.3L638.2,46.7L640.9,47.1L639.8,45.3L643.9,44.3L649.1,44.2L653.7,45.6L651.5,43.5L651.3,40.9L655.6,40.4L661.6,40.5L667.1,40.2L665.0,38.9L667.9,37.2L670.8,37.1L675.6,35.9L682.3,35.6L683.1,34.9L689.6,34.6L691.7,35.2L697.3,33.9L701.9,33.9L702.6,32.8L705.0,31.8L710.9,30.8L715.2,31.6L711.8,32.2L717.4,32.6L718.1,33.8L720.4,33.2L727.7,33.2L733.3,34.4L735.3,35.4L734.7,36.7L732.0,37.4L725.4,38.8L723.5,39.5L726.6,39.9L730.3,40.5L732.5,40.1L733.8,41.7L734.9,41.0L738.9,40.6L746.9,41.0L747.5,42.2L758.0,42.6L758.1,40.7L763.5,41.1L767.4,41.1L771.5,42.4L772.6,44.0L771.1,45.0L774.3,47.0L778.2,48.0L780.6,45.4L784.6,46.5L788.9,45.9L793.7,46.6L795.6,45.9L799.7,46.3L797.9,44.0L801.2,42.9L823.8,44.5L825.9,46.0L832.4,47.9L842.5,47.4L847.5,47.8L849.6,48.9L849.3,50.7L852.4,51.4L855.7,50.9L860.1,50.8L864.9,51.3L869.6,51.0L873.9,53.3L877.0,52.5L875.0,50.9L876.1,49.8L884.1,50.5L889.3,50.3L896.5,51.5L0.0,52.6Z M572.8,121.8L574.0,123.6L575.2,123.7L576.0,124.4L573.9,124.6L573.5,126.5L573.1,127.4L572.1,128.0L572.2,129.2L573.0,131.0L575.4,131.6L577.1,132.8L580.7,133.2L584.6,132.6L584.8,132.0L584.3,130.2L584.7,127.6L582.8,126.8L583.4,125.1L581.7,124.9L582.3,122.8L584.6,123.4L586.8,122.6L585.0,121.1L584.3,119.7L582.3,120.3L582.0,122.2L581.3,120.5L581.1,119.9L581.7,118.9L581.3,118.0L578.4,117.2L577.2,114.9L575.8,114.3L575.8,113.5L578.2,113.7L578.3,111.9L580.4,111.5L582.6,111.9L583.1,109.4L582.6,107.9L580.1,108.0L578.0,107.4L575.1,108.5L572.8,109.0L571.6,110.5L569.2,110.9L566.7,113.5L569.0,115.8L568.7,117.5L571.5,120.5L572.8,121.8Z M210.9,52.2L209.3,53.1L206.0,52.3L203.9,52.6L200.5,51.5L202.7,50.7L204.5,49.6L207.1,50.4L208.6,50.8L209.4,51.3L210.9,52.2Z M0.0,46.2L900.0,47.9L897.3,48.0L896.8,47.3L0.0,46.2Z M0.0,46.2L0.3,46.1L2.4,46.1L6.1,46.8L5.8,47.2L3.3,47.8L0.0,47.9L0.0,46.2Z M223.6,51.3L223.6,53.8L227.0,51.9L230.0,53.5L229.2,55.3L231.6,57.0L234.2,55.2L236.1,53.0L236.2,50.3L239.7,50.5L243.4,50.9L246.8,52.1L247.0,53.3L245.1,54.7L246.9,56.0L246.5,57.2L241.6,59.0L238.2,59.4L235.6,58.6L234.8,59.9L232.4,62.0L231.7,63.1L228.8,64.8L225.2,64.9L223.2,66.0L223.1,67.6L220.2,67.9L217.1,69.9L214.4,72.8L213.4,74.7L213.3,77.6L217.0,78.0L218.1,80.4L219.3,82.3L222.8,81.8L227.4,82.9L229.9,83.8L231.7,85.0L234.8,85.7L237.5,86.7L241.6,86.9L244.3,87.1L243.9,89.3L244.7,91.8L246.5,94.6L250.2,97.0L252.1,96.2L253.5,93.6L252.2,89.6L250.4,88.3L254.4,87.2L257.3,85.4L258.6,83.7L258.4,82.0L256.7,79.9L253.7,78.0L256.7,75.4L255.6,73.1L254.7,69.2L256.5,68.6L260.8,69.3L263.3,69.5L265.4,68.9L267.7,69.7L270.8,71.2L271.6,72.2L276.0,72.3L276.0,74.4L276.8,77.6L279.1,78.0L280.9,79.5L284.5,78.1L286.9,75.3L288.5,74.2L290.5,76.4L293.7,79.6L296.5,82.6L295.5,84.2L298.8,85.6L301.1,87.0L305.1,87.6L306.7,88.4L307.7,90.6L309.6,90.9L310.6,91.8L310.8,94.6L309.0,95.6L307.2,96.4L303.1,97.3L299.9,99.4L295.7,99.8L290.3,99.3L286.6,99.3L284.0,99.4L281.9,101.2L278.7,102.3L275.1,105.6L272.2,107.9L274.4,107.5L278.4,104.3L283.6,102.2L287.4,101.9L289.6,103.1L287.2,104.8L288.0,107.5L288.8,109.4L292.1,110.7L296.2,110.3L298.7,107.5L298.9,109.3L300.5,110.2L297.4,111.8L291.9,113.3L289.4,114.3L286.6,116.1L284.7,116.0L284.6,113.8L288.9,111.8L284.9,111.9L282.2,112.2L282.6,113.0L279.9,114.2L277.3,115.0L274.7,115.8L273.3,117.4L273.0,117.8L272.9,119.2L273.8,120.5L274.8,120.6L274.5,119.6L275.3,120.2L275.1,120.9L273.4,121.3L272.2,121.3L270.4,121.7L269.3,121.8L267.8,121.9L265.7,122.7L269.4,122.2L270.1,122.7L266.6,123.4L265.0,123.4L265.1,123.1L264.4,123.8L265.1,123.9L264.6,125.7L262.7,127.7L262.6,127.0L262.0,126.9L261.2,126.3L261.7,127.6L262.3,128.0L262.4,129.0L261.6,130.0L260.1,132.0L259.9,131.9L260.7,130.2L259.4,129.2L259.1,127.1L258.6,128.2L259.2,129.8L257.6,129.4L259.2,130.2L259.4,132.6L260.1,132.8L260.3,133.6L260.7,136.1L259.1,138.0L256.5,138.7L254.9,140.2L253.6,140.3L252.3,141.3L252.0,142.1L249.2,143.7L247.8,144.9L246.7,146.4L246.3,148.2L246.7,149.9L247.5,152.0L248.7,153.8L248.7,154.9L249.9,157.8L249.8,159.5L249.7,160.5L249.1,162.0L248.3,162.3L247.1,162.0L246.7,160.9L245.7,160.3L244.4,158.2L243.2,156.3L242.9,155.3L243.4,153.6L242.7,152.2L240.7,150.2L239.8,149.8L237.2,150.9L236.8,150.8L235.6,149.6L234.0,149.0L231.2,149.3L229.0,149.0L227.0,149.2L226.0,149.6L226.5,150.3L226.4,151.3L227.0,151.8L226.5,152.1L225.6,151.7L224.6,152.2L222.8,152.1L220.9,150.8L218.8,151.1L216.9,150.5L215.4,150.7L213.3,151.3L211.0,153.2L208.5,154.2L207.1,155.4L206.6,156.6L206.6,158.3L206.7,159.5L207.1,160.3L207.2,160.3L207.1,160.3L206.2,162.5L205.7,164.3L205.6,167.7L205.3,168.9L205.8,170.3L206.5,171.5L207.0,173.4L208.7,175.3L209.3,176.7L210.3,177.9L212.9,178.6L213.9,179.6L216.1,178.9L218.0,178.7L219.9,178.2L221.5,177.8L223.1,176.8L223.7,175.3L223.9,173.2L224.3,172.5L226.0,171.8L228.6,171.3L230.9,171.4L232.4,171.1L233.0,171.7L232.9,172.9L231.5,174.4L231.0,175.9L231.4,176.3L231.0,177.4L230.4,179.4L229.8,178.7L229.3,178.7L229.3,179.1L229.7,179.1L229.7,179.8L229.3,180.9L229.5,181.3L229.2,182.2L229.4,182.4L229.1,183.7L228.6,184.3L228.2,184.4L227.7,185.3L228.5,185.7L228.7,185.4L229.4,185.7L229.7,185.8L230.2,185.3L231.0,185.3L231.2,185.5L231.6,185.4L232.7,185.6L233.9,185.5L234.7,185.3L235.0,185.0L235.8,185.1L236.4,185.3L237.0,185.2L237.5,185.0L238.7,185.4L239.1,185.4L239.8,185.9L240.6,186.4L241.5,186.8L242.1,187.5L241.9,187.7L241.8,188.3L242.0,189.2L241.5,190.1L241.2,191.1L241.1,192.2L241.3,192.8L241.3,194.0L240.9,194.2L240.7,195.3L240.9,195.9L240.4,196.6L240.5,197.2L240.9,197.7L241.5,199.0L242.5,200.0L243.6,201.1L244.5,202.0L244.5,202.5L245.5,202.6L245.7,202.4L246.4,203.0L247.6,202.9L248.7,202.2L250.2,201.7L251.1,201.0L252.4,201.1L252.4,201.4L253.7,201.5L254.9,201.9L255.7,202.6L256.6,203.3L257.9,203.4L259.8,201.7L260.8,201.4L260.8,200.6L261.3,198.5L262.7,197.3L264.3,197.2L264.5,196.7L266.5,196.9L268.4,195.7L269.4,195.1L270.6,193.9L271.5,194.1L272.2,194.7L271.7,195.6L271.6,196.1L270.1,196.4L270.9,197.6L270.9,198.9L269.8,200.3L270.8,202.3L271.8,202.2L272.4,200.4L271.6,199.5L271.5,197.6L274.6,196.6L274.3,195.4L275.1,194.6L276.0,196.4L277.8,196.4L279.4,197.8L279.5,198.6L281.8,198.6L284.4,198.4L285.9,199.5L287.8,199.8L289.2,199.0L289.2,198.4L292.3,198.2L295.3,198.2L293.2,199.0L294.0,200.1L296.0,200.3L297.9,201.5L298.3,203.5L299.6,203.5L300.6,204.1L302.3,205.0L303.8,206.6L303.9,207.9L304.8,208.0L306.1,209.2L307.1,210.1L310.1,210.6L310.4,210.1L312.4,209.9L315.1,210.6L316.0,210.9L317.8,211.5L320.4,213.6L320.9,214.6L321.7,214.5L322.3,215.9L323.7,220.2L325.1,220.7L325.1,222.4L323.3,224.4L324.0,225.2L328.4,225.6L328.5,228.1L330.4,226.5L333.6,227.4L337.7,228.9L339.0,230.3L338.5,231.7L341.5,231.0L346.3,232.3L350.0,232.2L353.7,234.3L356.9,237.1L358.9,237.8L361.0,237.9L361.9,238.7L362.8,241.8L363.2,243.4L362.2,247.5L360.9,249.1L357.4,252.6L355.8,255.4L353.9,257.6L353.3,257.6L352.6,259.5L352.8,264.2L352.1,268.0L351.8,269.7L351.0,270.7L350.6,274.0L348.1,277.3L347.6,279.8L345.6,280.9L345.0,282.4L342.3,282.4L338.4,283.4L336.6,284.5L333.8,285.2L330.9,287.2L328.8,289.7L328.4,291.6L328.8,292.9L328.4,295.5L327.8,296.7L326.0,298.1L323.3,302.5L321.1,304.4L319.4,305.6L318.2,308.0L316.6,309.4L315.5,311.0L312.7,312.4L310.8,311.9L309.5,312.1L307.2,311.1L305.5,311.2L303.9,309.8L303.8,311.1L306.9,313.2L306.6,314.9L308.2,316.0L308.0,317.3L305.6,320.5L301.9,321.8L296.9,322.3L294.2,322.1L294.7,323.6L294.2,325.4L294.6,326.7L293.1,327.6L290.6,327.9L288.2,327.0L287.2,327.7L287.6,330.1L289.2,330.9L290.6,330.1L291.4,331.4L289.1,332.2L287.0,333.7L286.7,336.3L286.1,337.6L283.7,337.6L281.8,338.9L281.0,340.8L283.5,342.6L285.9,343.1L285.0,345.3L282.1,346.7L280.5,349.7L278.2,350.7L277.2,351.8L278.0,354.4L279.6,355.9L278.6,355.7L276.3,355.7L275.1,356.3L272.9,357.2L272.5,359.6L271.4,359.6L268.6,358.8L265.7,357.1L262.6,355.7L261.8,354.1L262.6,352.6L261.3,350.9L261.0,346.7L262.0,344.3L264.7,342.3L260.9,341.6L263.3,339.4L264.1,335.3L266.9,336.1L268.2,331.0L266.5,330.3L265.7,333.4L264.2,333.1L265.0,329.5L265.8,324.9L267.0,323.1L266.2,320.7L266.0,317.9L267.1,317.8L268.6,313.8L270.3,309.8L271.4,306.0L270.8,302.3L271.6,300.2L271.3,297.2L272.7,294.1L273.2,289.3L274.0,284.1L274.8,278.5L274.6,274.4L274.1,270.9L271.6,269.4L271.3,268.4L266.4,265.9L261.9,263.2L260.0,261.6L258.9,259.6L259.4,258.8L257.2,255.6L254.8,250.9L252.4,246.0L251.4,244.8L250.6,243.0L248.7,241.4L246.9,240.3L247.7,239.2L246.5,236.8L247.3,235.1L249.2,233.5L250.6,231.6L250.0,230.6L249.1,231.7L247.6,230.6L248.1,229.9L247.7,227.6L248.5,227.3L249.0,225.7L250.0,224.1L249.8,223.1L251.1,222.5L252.9,221.5L252.5,220.8L253.5,220.6L253.3,219.3L253.9,218.4L255.2,218.3L256.2,216.7L257.2,215.4L256.3,214.8L256.7,213.3L256.2,211.0L256.7,210.4L256.3,208.3L255.3,206.9L254.5,206.2L253.9,204.9L254.5,204.2L253.9,204.0L253.4,203.2L252.2,202.5L251.1,202.7L250.6,203.5L249.6,204.2L249.0,204.3L248.8,204.8L250.0,206.1L249.3,206.5L249.0,206.8L247.8,206.9L247.3,205.5L247.0,205.9L246.2,205.7L245.7,204.7L244.7,204.6L244.0,204.3L242.9,204.3L242.9,204.8L242.6,204.4L241.2,203.9L240.7,203.4L241.0,202.9L240.9,202.4L240.2,201.8L239.2,201.3L238.4,201.0L238.2,200.2L237.6,199.8L237.7,200.5L237.2,201.1L236.6,200.4L235.8,200.2L235.5,199.7L235.5,198.9L235.8,198.1L235.1,197.8L235.7,197.3L234.9,196.5L233.7,195.5L233.1,194.6L232.1,193.9L230.8,192.7L231.1,192.3L231.5,192.7L231.7,192.5L231.3,191.8L230.5,191.5L230.2,192.1L228.8,192.1L227.9,191.8L226.9,191.4L225.5,191.2L224.8,190.7L223.5,190.2L221.9,190.2L220.8,189.7L219.4,188.7L216.6,186.0L215.3,185.1L213.3,184.5L211.9,184.7L209.9,185.6L208.6,185.9L206.8,185.2L205.0,184.7L202.6,183.6L200.8,183.2L197.9,182.1L195.8,180.9L195.2,180.2L193.8,180.1L191.3,179.3L190.2,178.1L187.5,176.7L186.3,175.1L185.7,173.9L186.5,173.7L186.2,173.0L186.8,172.3L186.8,171.4L186.0,170.3L185.8,169.3L184.9,168.1L182.7,165.6L180.2,163.6L179.0,162.1L176.9,161.0L176.4,160.4L176.8,158.9L175.5,158.3L174.0,157.1L173.4,155.3L172.1,155.1L170.6,153.8L169.4,152.6L169.3,151.8L168.0,149.9L167.1,148.0L167.1,147.1L165.3,146.1L164.5,146.2L163.1,145.5L162.7,146.5L163.1,147.7L163.3,149.6L164.2,150.6L166.0,152.3L166.4,152.9L166.8,153.1L167.1,154.0L167.6,153.9L168.1,155.5L168.9,156.2L169.4,157.1L171.0,158.3L171.8,160.7L172.5,161.8L173.2,162.9L173.4,164.3L174.6,164.3L175.6,165.5L176.5,166.6L176.4,167.0L175.4,168.0L174.9,167.9L174.3,166.4L172.6,165.0L170.8,163.8L169.5,163.2L169.6,161.3L169.2,160.0L168.1,159.2L166.3,158.1L166.0,158.4L165.4,157.7L163.8,157.1L162.4,155.7L162.5,155.5L163.6,155.6L164.5,154.7L164.6,153.6L162.7,151.8L161.2,151.1L160.3,149.5L159.4,147.9L158.2,145.9L157.2,143.7L156.8,142.4L155.1,140.9L154.0,140.6L153.7,139.9L152.3,139.8L151.4,139.1L149.1,138.9L148.4,138.5L148.1,137.1L145.7,134.6L143.6,131.1L143.7,130.5L142.6,129.7L140.7,127.6L140.3,125.6L139.0,124.2L139.6,122.1L139.5,120.0L138.7,118.1L139.6,115.7L140.2,111.2L139.8,107.8L139.0,105.7L138.3,104.5L138.6,104.1L142.2,104.9L143.5,107.3L144.1,106.6L143.7,104.5L142.9,102.5L142.6,102.5L137.7,100.0L135.9,99.0L131.4,97.9L130.0,95.7L130.4,94.2L127.2,93.1L126.7,91.1L123.7,89.3L123.7,88.0L122.3,87.1L120.1,86.3L119.4,84.1L116.2,82.1L114.8,79.7L112.4,79.5L108.4,79.5L105.5,78.7L100.3,76.2L97.9,75.7L93.6,74.8L90.1,75.0L85.2,73.9L82.2,72.8L79.4,73.3L80.0,75.1L78.6,75.2L75.7,75.7L73.5,76.6L70.7,77.1L70.4,75.6L71.5,73.2L74.1,72.4L73.4,71.8L70.3,73.2L68.6,74.8L65.0,76.6L66.8,77.8L64.4,79.6L61.7,80.7L59.2,81.4L58.6,82.5L54.7,83.8L53.9,85.0L51.0,86.1L49.3,85.9L46.9,86.6L44.4,87.4L42.3,88.3L38.0,89.0L37.6,88.6L40.4,87.4L42.8,86.6L45.5,85.3L48.6,85.0L49.8,84.0L53.3,82.5L53.8,82.0L55.7,81.1L56.1,79.2L57.4,77.7L54.5,78.5L53.7,78.0L52.4,78.9L50.7,77.7L50.0,78.6L49.1,77.3L46.6,78.3L45.1,78.3L44.9,76.8L45.3,75.9L43.7,75.0L40.5,75.5L38.3,74.3L36.6,73.7L36.6,72.3L34.7,71.3L35.7,69.8L37.7,68.4L38.6,67.1L40.6,67.0L42.3,67.3L44.4,66.1L46.2,66.4L48.1,65.6L47.6,64.4L46.2,64.0L48.1,63.0L46.5,63.1L43.9,63.6L43.1,64.2L41.1,63.6L37.6,63.9L33.9,63.3L32.9,62.3L29.7,60.8L33.2,59.8L38.8,58.6L40.9,58.6L40.5,59.8L45.8,59.7L43.8,58.2L40.7,57.2L38.9,56.0L36.5,54.9L33.1,54.1L34.5,52.8L38.9,52.7L42.1,51.6L42.7,50.4L45.2,49.2L47.7,48.9L52.4,47.8L54.7,47.9L58.5,46.6L62.3,47.1L64.1,48.3L65.3,47.8L69.5,47.9L69.3,48.5L73.2,48.9L75.7,48.7L81.0,49.5L85.8,49.7L87.7,50.0L91.0,49.6L94.8,50.4L97.5,50.7L102.2,51.3L106.1,52.5L108.7,52.8L110.9,51.7L114.0,50.9L117.7,51.2L121.4,50.1L125.5,49.5L127.2,50.6L129.1,50.0L129.7,48.8L131.4,49.1L135.6,51.3L138.9,49.6L139.3,51.5L142.3,51.1L143.3,50.4L146.3,50.5L150.1,51.6L156.0,52.5L159.4,52.9L161.9,52.7L165.3,54.0L161.7,55.2L166.3,55.8L173.0,55.5L175.1,55.0L177.8,56.5L180.5,55.3L178.0,54.2L179.6,53.4L182.6,53.3L184.6,53.0L186.6,53.6L189.2,55.0L191.9,54.8L196.4,55.9L200.2,55.5L203.9,55.5L203.6,54.0L205.8,53.6L209.7,54.4L209.7,56.8L211.3,54.8L213.3,54.8L214.4,52.3L211.7,50.8L208.8,49.8L209.0,47.0L212.0,45.2L215.3,45.6L217.8,46.7L221.2,49.5L219.0,50.7L223.6,51.3Z M164.6,42.2L163.3,43.4L168.9,42.6L172.4,43.9L175.2,42.6L177.5,43.4L179.5,45.9L180.8,44.8L179.0,42.3L181.2,41.9L183.7,42.3L186.5,43.3L188.1,45.8L188.8,47.5L193.0,48.8L197.6,49.9L197.3,51.0L193.2,51.2L194.8,52.2L193.9,53.1L189.4,52.7L185.1,52.0L182.2,52.2L177.5,53.1L170.1,53.5L166.7,53.7L165.4,52.5L161.9,51.8L159.7,52.1L156.6,50.1L158.3,49.8L162.2,49.4L165.7,49.5L169.0,49.1L164.1,48.5L158.8,48.7L155.2,48.6L153.9,47.7L159.7,46.7L155.9,46.8L151.5,46.1L153.6,44.2L155.3,43.2L162.0,41.7L164.6,42.2Z M188.7,41.4L186.6,43.1L182.6,41.4L183.5,41.0L186.9,40.9L188.7,41.4Z M259.1,42.2L259.4,42.9L256.7,42.9L254.0,42.8L251.3,43.1L250.6,43.0L247.8,41.7L247.9,40.8L249.1,40.6L254.8,40.9L259.1,42.2Z M233.6,42.1L235.6,43.7L237.9,41.6L244.2,40.6L248.5,43.2L248.1,44.8L253.1,44.1L255.4,43.1L261.0,44.4L264.4,45.6L264.8,46.7L269.4,46.1L272.0,47.7L278.0,48.7L280.2,49.7L282.6,52.0L278.0,53.2L283.9,54.8L287.8,55.4L291.4,57.7L295.4,57.8L294.6,59.6L290.2,62.5L287.1,61.4L283.2,59.0L280.0,59.3L279.7,60.8L282.3,62.2L285.7,63.4L286.7,64.0L288.3,66.5L287.5,68.3L284.3,67.6L278.0,65.6L281.6,67.8L284.2,69.3L284.6,70.2L277.8,69.2L272.4,67.7L269.4,66.5L270.3,65.8L266.6,64.5L262.9,63.3L263.0,64.0L255.7,64.4L253.6,63.6L255.3,61.7L260.0,61.7L265.1,61.4L264.3,60.5L265.1,59.2L268.4,56.8L267.7,55.7L266.7,54.8L262.9,53.6L257.8,52.8L259.4,52.1L256.8,50.6L254.6,50.4L252.6,49.6L251.3,50.3L246.7,50.6L237.6,50.1L232.3,49.3L228.3,49.0L226.2,48.1L228.8,47.0L225.3,46.9L224.5,44.4L226.4,42.2L229.0,41.2L235.4,40.5L233.6,42.1Z M199.1,40.4L202.1,40.9L206.6,40.6L207.2,41.3L204.9,42.5L208.6,43.6L208.2,45.8L204.1,46.8L201.7,46.6L200.0,45.7L193.8,43.7L193.8,42.9L198.9,43.2L196.1,41.6L199.1,40.4Z M809.0,42.0L805.2,42.0L800.1,41.7L799.7,41.6L802.0,40.6L805.2,40.4L808.7,41.3L809.0,42.0Z M217.0,43.1L214.3,44.9L211.5,44.8L209.9,42.7L210.0,41.4L211.3,40.3L213.7,39.7L219.0,39.7L223.7,40.4L220.0,42.6L217.0,43.1Z M148.9,46.5L142.3,47.7L141.0,46.6L135.2,45.3L136.0,44.5L138.0,42.4L140.1,40.8L137.7,39.3L146.2,38.9L149.7,39.4L156.1,39.5L158.5,40.3L161.2,41.3L158.1,41.9L151.9,43.7L148.9,45.5L148.9,46.5Z M826.8,37.3L823.9,38.3L819.9,38.1L815.3,37.1L815.9,36.3L820.6,36.6L826.8,37.3Z M216.0,37.6L214.6,38.5L211.0,38.3L207.9,37.7L209.3,36.6L212.9,35.9L215.1,36.8L216.0,37.6Z M812.7,36.1L810.7,37.9L801.5,37.9L797.4,38.5L792.4,36.8L793.8,35.1L797.1,34.7L803.7,34.8L812.7,36.1Z M203.8,33.2L205.7,34.4L205.7,35.6L204.6,37.5L200.5,37.8L197.8,37.4L197.8,35.9L193.7,36.1L193.6,34.2L196.3,34.2L200.0,33.4L203.6,33.5L203.8,33.2Z M179.5,34.5L180.5,35.4L182.7,35.0L185.3,35.1L185.7,36.3L184.2,37.5L175.8,37.9L169.4,39.0L165.6,39.0L165.3,38.2L170.5,37.1L159.2,37.4L155.7,36.9L159.1,34.5L161.5,33.8L168.5,34.6L173.0,36.1L177.3,36.3L173.8,33.9L176.1,33.0L178.6,33.3L179.5,34.5Z M593.8,48.2L592.4,48.4L584.2,48.1L583.5,47.0L579.0,46.3L578.6,45.0L581.2,44.4L581.1,43.1L586.1,40.9L583.8,40.6L589.8,38.4L589.1,37.3L594.7,36.0L602.9,34.4L611.3,33.9L615.5,33.0L620.4,32.7L622.1,33.6L620.4,34.4L611.6,35.7L604.0,36.8L596.2,39.2L592.5,41.7L588.6,44.1L589.1,46.2L593.8,48.2Z M213.3,32.3L216.1,33.1L221.0,33.1L223.1,33.9L222.6,34.8L225.4,35.4L227.0,36.0L230.4,36.1L234.1,36.3L238.0,35.8L243.1,35.5L247.2,35.7L249.9,36.7L250.4,37.7L248.9,38.4L245.1,38.9L241.9,38.6L234.8,39.0L229.6,39.0L225.6,38.7L218.9,37.9L218.1,36.5L217.8,35.3L215.3,34.2L210.1,33.9L207.2,33.1L208.1,32.1L213.3,32.3Z M159.5,30.9L159.2,32.8L157.2,33.7L154.9,33.8L150.2,34.9L146.3,35.3L142.9,34.7L147.1,32.8L152.2,31.2L156.1,31.3L159.5,30.9Z M215.4,31.2L214.3,31.3L209.6,31.1L208.9,30.4L213.9,30.5L215.7,30.9L215.4,31.2Z M174.5,30.8L169.9,31.5L166.2,30.7L168.2,29.9L171.8,29.6L175.4,30.0L174.5,30.8Z M511.8,30.4L506.2,31.4L501.8,30.8L503.5,30.2L502.0,29.4L507.2,28.9L508.2,29.8L511.8,30.4Z M175.8,28.5L172.8,29.0L168.6,29.0L168.7,28.6L171.3,27.9L172.6,28.0L175.8,28.5Z M210.4,29.9L206.7,30.4L204.7,29.8L203.6,28.9L203.4,27.8L206.7,27.9L208.1,28.1L211.1,29.0L210.4,29.9Z M199.8,29.2L200.8,30.2L196.7,30.0L192.6,29.1L187.1,29.1L189.5,28.3L186.5,27.7L186.3,26.7L191.2,27.1L197.9,28.0L199.8,29.2Z M712.7,29.2L698.6,30.2L703.2,26.9L705.2,26.6L707.1,26.8L713.4,28.2L712.7,29.2Z M495.6,25.7L503.9,27.6L497.6,28.6L496.2,30.4L494.0,30.9L492.8,33.0L489.8,33.1L484.4,31.5L486.7,30.7L482.9,29.9L478.1,27.8L476.1,25.9L482.9,25.0L484.3,25.8L487.9,25.8L488.8,25.0L492.5,24.9L495.6,25.7Z M513.6,24.0L518.5,24.9L514.8,26.2L507.6,26.5L500.2,26.1L499.7,25.4L496.2,25.3L493.4,24.2L501.1,23.5L504.8,24.1L507.3,23.4L513.6,24.0Z M577.8,23.6L574.5,24.0L572.2,24.2L571.9,24.6L569.0,25.0L566.3,24.4L567.7,23.6L562.1,23.5L567.0,23.1L570.8,23.0L571.3,23.7L572.7,23.1L575.1,22.7L578.8,23.2L577.8,23.6Z M699.8,27.8L694.4,28.1L687.4,27.4L683.3,26.4L681.4,24.6L677.9,24.1L684.4,22.4L689.8,21.9L694.7,23.1L700.5,25.6L699.8,27.8Z M232.5,25.9L235.5,26.7L232.0,27.4L227.4,29.3L223.0,29.5L217.8,29.1L215.1,28.1L215.2,27.2L217.1,26.6L212.6,26.6L209.8,25.7L208.2,24.6L210.0,23.5L211.7,22.7L214.3,22.6L213.2,22.0L219.0,21.9L222.2,23.2L226.4,23.7L230.5,24.2L232.5,25.9Z M278.8,17.2L285.4,17.4L290.8,17.7L295.4,18.4L295.3,19.1L289.2,20.2L283.1,20.7L280.9,21.2L286.3,21.2L280.4,22.8L276.3,23.5L272.0,25.5L266.9,25.9L265.3,26.4L257.7,26.7L261.2,27.0L259.4,27.5L261.5,28.7L259.1,29.5L255.3,30.2L254.1,31.2L250.6,32.0L250.9,32.5L255.2,32.4L255.3,33.1L248.6,34.6L242.1,33.9L234.7,34.3L231.0,34.0L226.3,33.8L226.0,32.6L230.6,32.1L229.3,30.2L230.9,30.1L237.6,31.2L234.1,29.6L230.1,29.1L232.1,28.1L236.5,27.5L237.3,26.6L233.7,25.7L232.7,24.4L239.5,24.5L241.5,24.8L245.4,23.8L239.8,23.6L231.0,23.7L226.6,22.9L224.5,21.8L221.6,21.1L221.0,20.3L224.8,19.8L227.7,19.7L232.6,19.3L236.3,18.4L239.3,18.5L242.0,19.2L243.9,17.9L247.3,17.4L251.7,17.2L259.4,17.1L260.7,17.3L267.9,16.9L273.3,17.1L278.8,17.2Z M382.3,16.2L397.9,18.2L393.3,19.1L383.7,19.3L370.2,19.5L371.5,19.9L380.4,19.7L387.9,20.5L392.7,19.8L394.8,20.7L392.1,22.1L398.4,21.2L410.6,20.2L418.1,20.7L419.5,21.8L409.3,23.6L407.9,24.1L399.9,24.6L405.7,24.7L402.8,26.5L400.7,28.1L400.8,30.9L403.8,32.5L399.9,32.6L395.8,33.4L400.4,34.8L401.0,36.9L398.3,37.1L401.6,39.3L396.0,39.4L398.9,40.5L398.1,41.3L394.6,41.7L391.1,41.7L394.2,43.4L394.2,44.5L389.3,43.5L388.0,44.2L391.4,44.8L394.7,46.3L395.6,48.3L391.2,48.8L389.2,47.9L386.1,46.4L387.0,48.1L384.1,49.4L390.7,49.5L394.1,49.7L387.4,51.9L380.6,53.8L373.3,54.7L370.6,54.7L368.0,55.7L364.5,58.3L359.1,60.1L357.4,60.2L354.1,60.8L350.5,61.4L348.3,62.9L348.3,64.7L347.0,66.3L342.9,68.3L344.0,70.2L342.8,72.3L341.6,74.8L338.0,74.9L334.3,72.9L329.3,72.9L326.9,71.5L325.2,69.0L320.9,65.9L319.6,64.3L319.3,62.1L315.8,59.7L316.7,57.9L315.1,57.0L317.6,54.1L321.3,53.2L322.3,52.1L322.8,50.2L320.0,51.1L318.6,51.4L316.4,51.8L313.3,51.0L313.1,49.3L314.1,47.9L316.4,47.9L321.5,48.6L317.2,47.0L315.0,46.1L312.5,46.5L310.4,45.9L313.2,43.5L311.7,42.6L309.7,40.9L306.7,38.2L303.5,37.3L303.5,36.2L296.8,34.7L291.5,34.6L284.8,34.7L278.7,34.8L275.8,34.1L271.5,32.5L278.1,31.7L283.1,31.6L272.4,30.9L266.8,29.9L267.1,28.9L276.6,27.7L285.7,26.5L286.7,25.6L279.9,24.7L282.1,23.7L290.8,22.0L294.4,21.7L293.4,20.6L299.3,19.9L307.0,19.5L314.7,19.5L317.4,20.3L324.0,18.9L330.0,19.8L333.5,20.0L338.7,20.8L332.8,19.5L333.1,18.4L341.5,16.9L350.3,17.1L353.4,16.1L362.3,15.9L382.3,16.2Z" fill="rgba(0,45,75,0.88)" stroke="rgba(0,188,212,0.55)" stroke-width="0.6" stroke-linejoin="round" stroke="rgba(20,65,40,0.6)" stroke-width="0.4"/>
  <!-- tactical scanline -->
  <rect x="0" y="0" width="900" height="3" fill="rgba(0,230,255,0.22)" opacity="0">
    <animateTransform attributeName="transform" type="translate" values="0,0;0,450" dur="5s" repeatCount="indefinite"/>
    <animate attributeName="opacity" values="0;0.8;0.8;0" keyTimes="0;0.04;0.96;1" dur="5s" repeatCount="indefinite"/>
  </rect>
</svg>
